<svg id="Camada_1" data-name="Camada 1" xmlns="http://www.w3.org/2000/svg" xmlns:xlink="http://www.w3.org/1999/xlink" viewBox="0 0 122.88 122.88"><defs><style>.cls-1{fill:url(#Gradiente_sem_nome_4);}.cls-2{fill:#fff;fill-rule:evenodd;}</style><linearGradient id="Gradiente_sem_nome_4" x1="2.33" y1="6.52" x2="118.71" y2="114.65" gradientUnits="userSpaceOnUse"><stop offset="0.28" stop-color="#f9b338"/><stop offset="0.77" stop-color="#f98538"/></linearGradient></defs><g id="Layer_1"><g id="_444239888" data-name=" 444239888"><rect class="cls-1" width="122.88" height="122.88" rx="13.32"/><path class="cls-2" d="M27.64,57.28c0,6-.67,30.63,1,34.63a21.87,21.87,0,0,0,3,4.66c2.66,3,7,4.33,11,4.33h38.3c9,0,15.32-6,15.32-13V57.28c0-1.33-2.33-1-4-1h-16c.33,1.33,3,5.66,3,11,0,12.32-13.66,20.31-25,15A17.61,17.61,0,0,1,45,69.6c-1-4.66.66-9,2.66-13.32H32C30.3,56.28,27.64,56,27.64,57.28Zm34.3,19.31a9.91,9.91,0,0,1-6.66-2.66c-6.66-6.33-1.33-17,5.66-17,6,0,10.32,3,11,9.33C72.26,71.93,67.27,76.59,61.94,76.59Zm-13.65-10c0,9,9.32,16.65,19,12.66,12.65-5.67,10.32-25.31-5-26C55.28,52.62,48.29,59.61,48.29,66.6ZM41,49H38.3V32.63c-1,0-2,0-2,1.34V49H33.63V35c-3.66,1-6,7.65-6,12.32s-.67,7.32,1,7.32H49c.34,0,4.33-3,5.33-3.33a19.13,19.13,0,0,1,15-.33c10,5-3.33,3.66,27,3.66V45.29c0-7-6.33-13-13.32-13H45.62V49H43V32.3H41ZM81.25,38h6a2.86,2.86,0,0,1,2.66,2.67v6A2.57,2.57,0,0,1,87.25,49h-6a2.28,2.28,0,0,1-2.33-2.33v-6A2.57,2.57,0,0,1,81.25,38Z"/></g></g></svg>