<svg id="Camada_1" data-name="Camada 1" xmlns="http://www.w3.org/2000/svg" xmlns:xlink="http://www.w3.org/1999/xlink" viewBox="0 0 122.88 122.88"><defs><style>.cls-1{fill:url(#Gradiente_sem_nome_4);}.cls-2{fill:#ccd8e6;}.cls-2,.cls-3,.cls-4{fill-rule:evenodd;}.cls-3{fill:#fefefe;}.cls-4{fill:#abbdd5;}</style><linearGradient id="Gradiente_sem_nome_4" x1="3.38" y1="6.2" x2="117.45" y2="114.73" gradientUnits="userSpaceOnUse"><stop offset="0.27" stop-color="#f9b338"/><stop offset="0.77" stop-color="#f98538"/></linearGradient></defs><g id="Layer_1"><g id="_445047880" data-name=" 445047880"><rect class="cls-1" width="122.88" height="122.88" rx="13.18"/><path class="cls-2" d="M81,47.08c.47-.94,1.41-.94,1.41-2.35-1.88,0-3.3,1.41-4.24,1.88L46.61,66.38l6.12,19.31c.94-1,.94-1.89.94-3.77,0-.94.47-2.83.47-3.77V74.86c.47-.47.47-.94.47-1.89V71.56c.47-.94.94-.47,1.42-1.41C63.09,62.62,73,54.14,81,47.08Z"/><path class="cls-3" d="M31.07,60.73l15.54,5.65,33-20.71a6.68,6.68,0,0,1,2.82-.94c0,1.41-1.88,2.82-2.82,3.76-7.07,6.12-18.84,15.07-25,22.13l5.65,4.24c.94,0,3.3,2.35,3.77,2.82.94.47,4.71,3.3,5.18,4.24.94,0,.94.47,1.41.94l4.71,3.3c1.88,1.41,3.76,3.76,7.06,1.41L92.75,40.49c1.41-8-2.36-6.59-7.53-4.71L32.49,57C30.6,57.91,28.72,60.26,31.07,60.73Z"/><path class="cls-4" d="M52.73,85.69l.47.47A4.08,4.08,0,0,0,56,84.74l8-7.06c-.47-.47-2.83-2.82-3.77-2.82l-5.65-4.24Z"/></g></g></svg>