<svg id="Camada_1" data-name="Camada 1" xmlns="http://www.w3.org/2000/svg" xmlns:xlink="http://www.w3.org/1999/xlink" viewBox="0 0 122.88 122.88"><defs><style>.cls-1{fill:url(#Gradiente_sem_nome_2);}.cls-2{fill:#fff;fill-rule:evenodd;}</style><linearGradient id="Gradiente_sem_nome_2" x1="4.38" y1="3.97" x2="117.36" y2="117.77" gradientUnits="userSpaceOnUse"><stop offset="0.22" stop-color="#f9b338"/><stop offset="0.78" stop-color="#f98538"/></linearGradient></defs><g id="Layer_1"><g id="_445027624" data-name=" 445027624"><rect class="cls-1" width="122.88" height="122.88" rx="13.35"/><path class="cls-2" d="M84,93H99.18V63.06A32.69,32.69,0,0,0,96.66,50a13,13,0,0,0-8.32-7c-4-1.25-9.57-1.51-13.6,0a14.59,14.59,0,0,0-6.8,4.78,3.64,3.64,0,0,0-.76,1c-.25.25-.25.5-.5.5-.25.76.25.51-.5.51V43H51.82c-.25.76-.25,48.25,0,49H66.9s.25-19.82.25-22.34c0-7.55.75-13.85,8.56-14.1C84,55,84,62.32,84,69.62,84,71.39,84.27,90.77,84,93ZM33.66,19c-4.53.76-8.31,4.53-7.56,10.07a8.78,8.78,0,0,0,10.08,7.56A8.91,8.91,0,0,0,33.66,19ZM27.18,92H41.93c.25-1.26.25-10.35.25-12.37V43h-15Z"/></g></g></svg>